<?xml version="1.0" encoding="UTF-8" standalone="no"?>
<!DOCTYPE svg PUBLIC "-//W3C//DTD SVG 1.1//EN"
 "http://www.w3.org/Graphics/SVG/1.1/DTD/svg11.dtd">
<!-- Generated by graphviz version 2.40.1 (20161225.0304)
 -->
<!-- Title: G Pages: 1 -->
<svg width="321pt" height="384pt"
 viewBox="0.00 0.00 320.69 384.00" xmlns="http://www.w3.org/2000/svg" xmlns:xlink="http://www.w3.org/1999/xlink">
<g id="graph0" class="graph" transform="scale(1 1) rotate(0) translate(4 380)">
<title>G</title>
<polygon fill="#ffffff" stroke="transparent" points="-4,4 -4,-380 316.6897,-380 316.6897,4 -4,4"/>
<g id="clust1" class="cluster">
<title>cluster_Global</title>
<path fill="none" stroke="#c0c0c0" d="M20,-8C20,-8 292.6897,-8 292.6897,-8 298.6897,-8 304.6897,-14 304.6897,-20 304.6897,-20 304.6897,-356 304.6897,-356 304.6897,-362 298.6897,-368 292.6897,-368 292.6897,-368 20,-368 20,-368 14,-368 8,-362 8,-356 8,-356 8,-20 8,-20 8,-14 14,-8 20,-8"/>
<text text-anchor="middle" x="156.3449" y="-355.2" font-family="Times,serif" font-size="11.00" fill="#c0c0c0">Global</text>
</g>
<g id="clust2" class="cluster">
<title>cluster_\PHPMailer</title>
<path fill="none" stroke="#c0c0c0" d="M199.6897,-16C199.6897,-16 284.6897,-16 284.6897,-16 290.6897,-16 296.6897,-22 296.6897,-28 296.6897,-28 296.6897,-328 296.6897,-328 296.6897,-334 290.6897,-340 284.6897,-340 284.6897,-340 199.6897,-340 199.6897,-340 193.6897,-340 187.6897,-334 187.6897,-328 187.6897,-328 187.6897,-28 187.6897,-28 187.6897,-22 193.6897,-16 199.6897,-16"/>
<text text-anchor="middle" x="242.1897" y="-327.2" font-family="Times,serif" font-size="11.00" fill="#c0c0c0">PHPMailer</text>
</g>
<g id="clust3" class="cluster">
<title>cluster_\PHPMailer\PHPMailer</title>
<path fill="none" stroke="#c0c0c0" d="M207.6897,-24C207.6897,-24 276.6897,-24 276.6897,-24 282.6897,-24 288.6897,-30 288.6897,-36 288.6897,-36 288.6897,-300 288.6897,-300 288.6897,-306 282.6897,-312 276.6897,-312 276.6897,-312 207.6897,-312 207.6897,-312 201.6897,-312 195.6897,-306 195.6897,-300 195.6897,-300 195.6897,-36 195.6897,-36 195.6897,-30 201.6897,-24 207.6897,-24"/>
<text text-anchor="middle" x="242.1897" y="-299.2" font-family="Times,serif" font-size="11.00" fill="#c0c0c0">PHPMailer</text>
</g>
<!-- \\PHPMailer\\PHPMailer\\SMTP -->
<g id="node1" class="node">
<title>\\PHPMailer\\PHPMailer\\SMTP</title>
<polygon fill="none" stroke="#000000" points="269.1897,-284 215.1897,-284 215.1897,-248 269.1897,-248 269.1897,-284"/>
<text text-anchor="middle" x="242.1897" y="-263.2" font-family="Courier,monospace" font-size="11.00" fill="#000000">SMTP</text>
</g>
<!-- \\PHPMailer\\PHPMailer\\Exception -->
<g id="node2" class="node">
<title>\\PHPMailer\\PHPMailer\\Exception</title>
<polygon fill="none" stroke="#000000" points="280.6897,-230 203.6897,-230 203.6897,-194 280.6897,-194 280.6897,-230"/>
<text text-anchor="middle" x="242.1897" y="-209.2" font-family="Courier,monospace" font-size="11.00" fill="#000000">Exception</text>
</g>
<!-- Exception -->
<g id="node6" class="node">
<title>Exception</title>
<ellipse fill="none" stroke="#000000" cx="73.8449" cy="-212" rx="57.6901" ry="18"/>
<text text-anchor="middle" x="73.8449" y="-208.3" font-family="Times,serif" font-size="14.00" fill="#c0c0c0">Exception</text>
</g>
<!-- \\PHPMailer\\PHPMailer\\Exception&#45;&gt;Exception -->
<g id="edge1" class="edge">
<title>\\PHPMailer\\PHPMailer\\Exception&#45;&gt;Exception</title>
<path fill="none" stroke="#000000" d="M203.568,-212C185.2987,-212 162.9324,-212 141.9497,-212"/>
<polygon fill="none" stroke="#000000" points="141.7843,-208.5001 131.7842,-212 141.7842,-215.5001 141.7843,-208.5001"/>
</g>
<!-- \\PHPMailer\\PHPMailer\\OAuth -->
<g id="node3" class="node">
<title>\\PHPMailer\\PHPMailer\\OAuth</title>
<polygon fill="none" stroke="#000000" points="269.1897,-176 215.1897,-176 215.1897,-140 269.1897,-140 269.1897,-176"/>
<text text-anchor="middle" x="242.1897" y="-155.2" font-family="Courier,monospace" font-size="11.00" fill="#000000">OAuth</text>
</g>
<!-- \\PHPMailer\\PHPMailer\\POP3 -->
<g id="node4" class="node">
<title>\\PHPMailer\\PHPMailer\\POP3</title>
<polygon fill="none" stroke="#000000" points="269.1897,-122 215.1897,-122 215.1897,-86 269.1897,-86 269.1897,-122"/>
<text text-anchor="middle" x="242.1897" y="-101.2" font-family="Courier,monospace" font-size="11.00" fill="#000000">POP3</text>
</g>
<!-- \\PHPMailer\\PHPMailer\\PHPMailer -->
<g id="node5" class="node">
<title>\\PHPMailer\\PHPMailer\\PHPMailer</title>
<polygon fill="none" stroke="#000000" points="280.6897,-68 203.6897,-68 203.6897,-32 280.6897,-32 280.6897,-68"/>
<text text-anchor="middle" x="242.1897" y="-47.2" font-family="Courier,monospace" font-size="11.00" fill="#000000">PHPMailer</text>
</g>
</g>
</svg>
